<?xml version="1.0" standalone="no"?>
<!DOCTYPE svg PUBLIC "-//W3C//DTD SVG 20010904//EN"
 "http://www.w3.org/TR/2001/REC-SVG-20010904/DTD/svg10.dtd">
<svg version="1.0" xmlns="http://www.w3.org/2000/svg"
 width="700.000000pt" height="700.000000pt" viewBox="0 0 700.000000 700.000000"
 preserveAspectRatio="xMidYMid meet">
<metadata>
Created by potrace 1.11, written by Peter Selinger 2001-2013
</metadata>
<g transform="translate(0.000000,700.000000) scale(0.100000,-0.100000)"
fill="#000000" stroke="none">
<path d="M3225 6926 c-77 -40 -248 -128 -380 -195 -132 -68 -298 -154 -370
-191 -103 -54 -465 -240 -569 -293 -12 -5 -28 -14 -36 -18 -8 -4 -100 -51
-205 -104 -104 -53 -200 -108 -212 -121 l-23 -25 0 -2477 c0 -2184 2 -2480 15
-2499 8 -12 144 -88 302 -169 159 -81 338 -173 398 -204 61 -31 205 -106 320
-165 116 -59 278 -143 360 -185 83 -43 239 -123 347 -179 l197 -101 503 297
c277 163 506 301 509 306 3 5 8 7 10 6 4 -3 48 22 299 171 80 48 193 115 253
149 59 35 111 70 116 80 8 14 92 291 137 451 9 30 20 66 25 80 11 33 223 823
255 950 2 8 8 31 13 50 86 325 90 347 63 396 -19 35 -92 88 -203 146 -13 7
-77 45 -142 83 -64 39 -129 77 -145 85 -15 8 -86 50 -159 93 -99 59 -134 85
-141 105 -13 37 -12 1341 1 1367 5 11 42 56 81 100 39 44 85 95 101 114 17 19
43 49 59 65 56 60 56 62 56 483 0 213 -3 398 -6 409 -4 14 -38 41 -92 74 -48
28 -94 56 -102 61 -17 10 -260 153 -305 179 -45 26 -378 222 -777 458 -197
116 -370 218 -386 226 -27 14 -33 12 -167 -58z m387 -155 c128 -76 449 -265
713 -421 264 -156 521 -307 570 -337 l90 -53 1 -378 c1 -231 -3 -385 -9 -397
-5 -11 -24 -36 -41 -55 -87 -99 -149 -170 -190 -213 -25 -28 -48 -64 -54 -87
-12 -49 -14 -1340 -2 -1395 12 -54 39 -76 231 -185 186 -107 536 -315 554
-330 26 -22 21 -68 -31 -273 -30 -117 -56 -221 -58 -232 -5 -21 -33 -128 -61
-230 -9 -33 -18 -67 -20 -75 -9 -43 -58 -223 -76 -280 -10 -36 -46 -157 -78
-270 -65 -228 -147 -496 -155 -509 -5 -7 -139 -89 -241 -147 -11 -6 -67 -39
-125 -74 -58 -34 -118 -70 -135 -80 -16 -9 -142 -84 -280 -165 -137 -81 -263
-155 -280 -165 -62 -36 -314 -185 -418 -247 -59 -36 -110 -63 -112 -61 -4 4 1
27 130 488 48 173 91 329 95 345 8 32 53 196 70 255 13 45 207 749 225 815 24
87 61 224 114 413 54 194 60 236 37 280 -25 48 37 9 -746 466 -168 98 -318
191 -333 206 -55 53 -54 27 -52 1018 1 610 5 925 12 942 14 32 52 79 156 193
120 131 195 217 226 256 l26 34 3 544 c2 299 4 543 6 543 2 0 109 -62 238
-139z"/>
<path d="M3229 5190 c-68 -19 -102 -70 -114 -169 -4 -30 -9 -63 -11 -75 -17
-82 -37 -264 -51 -456 -9 -129 -9 -521 0 -650 10 -149 27 -260 42 -291 15 -28
53 -59 90 -73 11 -5 140 -10 286 -12 l266 -4 12 27 c7 16 24 66 37 111 14 46
38 119 55 163 65 167 160 203 207 77 21 -57 33 -126 47 -273 11 -116 0 -107
139 -100 304 15 352 39 371 191 4 27 9 60 11 74 20 106 26 535 11 685 -14 135
-53 315 -74 343 -57 78 -355 247 -538 305 -91 30 -258 72 -325 82 -25 4 -54 9
-65 11 -11 2 -40 7 -65 10 -25 3 -56 7 -70 9 -25 4 -120 13 -195 19 -22 2 -52
0 -66 -4z m484 -559 c137 -84 185 -372 95 -561 -112 -233 -330 -189 -407 82
-46 162 7 387 110 469 64 51 131 54 202 10z m608 -134 c158 -107 158 -447 -1
-555 -45 -31 -114 -27 -158 9 -40 31 -89 130 -99 199 -23 152 41 323 135 362
35 14 89 8 123 -15z"/>
</g>
</svg>
